<svg xmlns="http://www.w3.org/2000/svg" width="1024" height="1024" viewBox="0 0 1024 1024">
  <defs>
    <linearGradient id="glass" x1="120" x2="890" y1="80" y2="930" gradientUnits="userSpaceOnUse">
      <stop offset="0" stop-color="#8ee7ff"/>
      <stop offset="0.44" stop-color="#4f7dff"/>
      <stop offset="1" stop-color="#7c3aed"/>
    </linearGradient>
    <linearGradient id="paper" x1="300" x2="735" y1="198" y2="770" gradientUnits="userSpaceOnUse">
      <stop offset="0" stop-color="#ffffff" stop-opacity="0.96"/>
      <stop offset="1" stop-color="#eef4ff" stop-opacity="0.88"/>
    </linearGradient>
    <filter id="shadow" x="-20%" y="-20%" width="140%" height="140%">
      <feDropShadow dx="0" dy="28" stdDeviation="34" flood-color="#172554" flood-opacity="0.28"/>
    </filter>
  </defs>
  <rect x="76" y="76" width="872" height="872" rx="210" fill="url(#glass)"/>
  <path d="M130 212c60-92 186-136 374-132 156 3 270 48 340 134-118-42-234-51-349-28-124 24-245 33-365 26z" fill="#ffffff" opacity="0.22"/>
  <path d="M252 202h356l154 154v434H252z" fill="url(#paper)" filter="url(#shadow)"/>
  <path d="M608 202v158h154z" fill="#dbeafe" opacity="0.96"/>
  <path d="M344 606V392h68v155h126v59z" fill="#3151e6"/>
  <path d="M676 612h48l10-54h44v-42h-36l8-44h34v-42h-26l8-44h-48l-8 44h-41l8-44h-48l-8 44h-40v42h32l-8 44h-36v42h28l-10 54h48l10-54h41zm-23-96 8-44h41l-8 44z" fill="#7c3aed" opacity="0.92"/>
  <path d="M306 704h412" stroke="#4564d9" stroke-width="34" stroke-linecap="round" opacity="0.28"/>
  <path d="M306 764h292" stroke="#4564d9" stroke-width="28" stroke-linecap="round" opacity="0.2"/>
  <path d="M170 140c-40 66-62 139-66 220" stroke="#ffffff" stroke-width="26" stroke-linecap="round" opacity="0.3"/>
</svg>
